0
SECTION
2
HEADER
9
$INSUNITS
70
4
9
$ACADVER
1
AC1014
9
$HANDSEED
5
FFFF
0
ENDSEC
0
SECTION
2
TABLES
0
TABLE
2
VPORT
5
8
100
AcDbSymbolTable
0
ENDTAB
0
TABLE
2
LTYPE
5
5
100
AcDbSymbolTable
0
LTYPE
5
14
100
AcDbSymbolTableRecord
100
AcDbLinetypeTableRecord
2
BYBLOCK
70
0
0
LTYPE
5
15
100
AcDbSymbolTableRecord
100
AcDbLinetypeTableRecord
2
BYLAYER
70
0
0
ENDTAB
0
TABLE
2
LAYER
5
2
100
AcDbSymbolTable
70
2
0
LAYER
5
50
100
AcDbSymbolTableRecord
100
AcDbLayerTableRecord
2
0
70
0
6
CONTINUOUS
0
ENDTAB
0
TABLE
2
STYLE
5
3
100
AcDbSymbolTable
70
1
0
STYLE
5
11
100
AcDbSymbolTableRecord
100
AcDbTextStyleTableRecord
2
STANDARD
70
0
0
ENDTAB
0
TABLE
2
VIEW
5
6
100
AcDbSymbolTable
70
0
0
ENDTAB
0
TABLE
2
UCS
5
7
100
AcDbSymbolTable
70
0
0
ENDTAB
0
TABLE
2
APPID
5
9
100
AcDbSymbolTable
70
2
0
APPID
5
12
100
AcDbSymbolTableRecord
100
AcDbRegAppTableRecord
2
ACAD
70
0
0
ENDTAB
0
TABLE
2
DIMSTYLE
5
A
100
AcDbSymbolTable
70
1
0
ENDTAB
0
TABLE
2
BLOCK_RECORD
5
1
100
AcDbSymbolTable
70
1
0
BLOCK_RECORD
5
1F
100
AcDbSymbolTableRecord
100
AcDbBlockTableRecord
2
*MODEL_SPACE
0
BLOCK_RECORD
5
1B
100
AcDbSymbolTableRecord
100
AcDbBlockTableRecord
2
*PAPER_SPACE
0
ENDTAB
0
ENDSEC
0
SECTION
2
BLOCKS
0
BLOCK
5
20
100
AcDbEntity
100
AcDbBlockBegin
2
*MODEL_SPACE
0
ENDBLK
5
21
100
AcDbEntity
100
AcDbBlockEnd
0
BLOCK
5
1C
100
AcDbEntity
100
AcDbBlockBegin
2
*PAPER_SPACE
0
ENDBLK
5
1D
100
AcDbEntity
100
AcDbBlockEnd
0
ENDSEC
0
SECTION
2
ENTITIES
0
LWPOLYLINE
5
100
100
AcDbEntity
8
0
100
AcDbPolyline
90
8
70
1
43
0.0
10
214.45499999999996
20
-3371.8311229776123
42
-0.4142135623730992
10
224.45499999999996
20
-3381.8311229776123
10
224.4550000000001
20
-3401.8311229776123
42
-0.4142135623730992
10
214.45499999999996
20
-3411.8311229776123
10
194.45499999999996
20
-3411.8311229776123
42
-0.4142135623730992
10
184.45499999999996
20
-3401.8311229776123
10
184.45499999999981
20
-3381.8311229776123
42
-0.4142135623730992
10
194.45499999999996
20
-3371.8311229776123
0
LWPOLYLINE
5
101
100
AcDbEntity
8
0
100
AcDbPolyline
90
8
70
1
43
0.0
10
214.45499999999996
20
-3198.4593532303907
10
194.45499999999996
20
-3198.4593532303907
42
0.4142135623730992
10
184.45499999999987
20
-3208.4593532303907
10
184.45499999999996
20
-3228.4593532303907
42
0.4142135623730992
10
194.45499999999996
20
-3238.4593532303907
10
214.45499999999996
20
-3238.4593532303907
42
0.4142135623730992
10
224.45500000000004
20
-3228.4593532303907
10
224.45499999999996
20
-3208.4593532303907
42
0.4142135623730992
0
LWPOLYLINE
5
102
100
AcDbEntity
8
0
100
AcDbPolyline
90
8
70
1
43
0.0
10
184.45499999999987
20
-3536.9446557865576
10
184.45499999999996
20
-3556.9446557865576
42
0.4142135623730992
10
194.45499999999996
20
-3566.9446557865576
10
214.45499999999996
20
-3566.9446557865576
42
0.4142135623730992
10
224.45500000000004
20
-3556.9446557865576
10
224.45499999999996
20
-3536.9446557865576
42
0.4142135623730992
10
214.45499999999996
20
-3526.9446557865576
10
194.45499999999996
20
-3526.9446557865576
42
0.4142135623730992
0
LWPOLYLINE
5
103
100
AcDbEntity
8
0
100
AcDbPolyline
90
8
70
1
43
0.0
10
91.454999999999913
20
-3275.4446557865576
42
-0.41421356237316265
10
89.455000000000126
20
-3277.4446557865581
10
85.45499999999997
20
-3277.4446557865581
42
-0.4142135623728635
10
83.454999999999956
20
-3275.4446557865576
10
83.454999999999885
20
-3271.4446557865576
42
-0.41421356237295714
10
85.45499999999997
20
-3269.4446557865576
10
89.454999999999956
20
-3269.4446557865576
42
-0.41421356237295714
10
91.454999999999956
20
-3271.4446557865576
0
LWPOLYLINE
5
104
100
AcDbEntity
8
0
100
AcDbPolyline
90
8
70
1
43
0.0
10
61.788333333333242
20
-3310.9446557865572
42
-0.41421356237316009
10
59.788333333333483
20
-3312.9446557865576
10
55.788333333333284
20
-3312.9446557865576
42
-0.41421356237286611
10
53.788333333333291
20
-3310.9446557865572
10
53.788333333333185
20
-3306.9446557865567
42
-0.41421356237295975
10
55.788333333333284
20
-3304.9446557865572
10
59.788333333333284
20
-3304.9446557865572
42
-0.41421356237295587
10
61.788333333333298
20
-3306.9446557865567
0
LWPOLYLINE
5
105
100
AcDbEntity
8
0
100
AcDbPolyline
90
8
70
1
43
0.0
10
121.12166666666658
20
-3310.9446557865572
42
-0.41421356237316009
10
119.12166666666681
20
-3312.9446557865576
10
115.12166666666661
20
-3312.9446557865576
42
-0.4142135623728635
10
113.12166666666663
20
-3310.9446557865572
10
113.12166666666654
20
-3306.9446557865567
42
-0.41421356237295714
10
115.12166666666661
20
-3304.9446557865572
10
119.12166666666663
20
-3304.9446557865572
42
-0.41421356237295714
10
121.12166666666664
20
-3306.9446557865567
0
LWPOLYLINE
5
106
100
AcDbEntity
8
0
100
AcDbPolyline
90
8
70
1
43
0.0
10
32.121666666667146
20
-3523.9446557865576
42
-0.4142135623730781
10
30.121666666666805
20
-3525.9446557865576
10
26.121666666666627
20
-3525.9446557865576
42
-0.41421356237286611
10
24.121666666666624
20
-3523.9446557865576
10
24.121666666666812
20
-3519.9446557865572
42
-0.4142135623730846
10
26.121666666666627
20
-3517.9446557865572
10
30.12166666666662
20
-3517.9446557865572
42
-0.41421356237308266
10
32.12166666666662
20
-3519.9446557865572
0
LWPOLYLINE
5
107
100
AcDbEntity
8
0
100
AcDbPolyline
90
8
70
1
43
0.0
10
269.45499999999993
20
-3559.4446557865576
42
-0.41421356237315748
10
267.45500000000015
20
-3561.4446557865581
10
263.45499999999998
20
-3561.4446557865581
42
-0.41421356237286089
10
261.45499999999998
20
-3559.4446557865576
10
261.45499999999993
20
-3555.4446557865572
42
-0.41421356237295454
10
263.45499999999998
20
-3553.4446557865572
10
267.45499999999998
20
-3553.4446557865572
42
-0.41421356237295454
10
269.45499999999998
20
-3555.4446557865572
0
LWPOLYLINE
5
108
100
AcDbEntity
8
0
100
AcDbPolyline
90
8
70
1
43
0.0
10
269.4550000000005
20
-3523.9446557865576
42
-0.41421356237307422
10
267.45500000000015
20
-3525.9446557865576
10
263.45499999999998
20
-3525.9446557865576
42
-0.41421356237286089
10
261.45499999999998
20
-3523.9446557865576
10
261.45500000000021
20
-3519.9446557865572
42
-0.41421356237307944
10
263.45499999999998
20
-3517.9446557865572
10
267.45499999999998
20
-3517.9446557865576
42
-0.41421356237299617
10
269.45499999999998
20
-3519.9446557865572
0
LWPOLYLINE
5
109
100
AcDbEntity
8
0
100
AcDbPolyline
90
8
70
1
43
0.0
10
32.121666666666577
20
-3452.9446557865576
42
-0.41421356237316137
10
30.121666666666805
20
-3454.9446557865581
10
26.121666666666627
20
-3454.9446557865581
42
-0.41421356237286611
10
24.121666666666624
20
-3452.9446557865576
10
24.121666666666528
20
-3448.9446557865576
42
-0.41421356237295975
10
26.121666666666627
20
-3446.9446557865576
10
30.12166666666662
20
-3446.9446557865576
42
-0.41421356237295781
10
32.12166666666662
20
-3448.9446557865576
0
LWPOLYLINE
5
110
100
AcDbEntity
8
0
100
AcDbPolyline
90
8
70
1
43
0.0
10
32.121666666667146
20
-3346.4446557865576
42
-0.4142135623730781
10
30.121666666666805
20
-3348.4446557865576
10
26.121666666666627
20
-3348.4446557865576
42
-0.41421356237286611
10
24.121666666666624
20
-3346.4446557865576
10
24.121666666666812
20
-3342.4446557865572
42
-0.4142135623730846
10
26.121666666666627
20
-3340.4446557865572
10
30.12166666666662
20
-3340.4446557865572
42
-0.41421356237308266
10
32.12166666666662
20
-3342.4446557865572
0
LWPOLYLINE
5
111
100
AcDbEntity
8
0
100
AcDbPolyline
90
8
70
1
43
0.0
10
121.12166666666658
20
-3452.9446557865576
42
-0.41421356237316009
10
119.12166666666681
20
-3454.9446557865581
10
115.12166666666661
20
-3454.9446557865581
42
-0.4142135623728635
10
113.12166666666663
20
-3452.9446557865576
10
113.12166666666654
20
-3448.9446557865576
42
-0.41421356237295714
10
115.12166666666661
20
-3446.9446557865576
10
119.12166666666663
20
-3446.9446557865576
42
-0.41421356237295714
10
121.12166666666664
20
-3448.9446557865576
0
LWPOLYLINE
5
112
100
AcDbEntity
8
0
100
AcDbPolyline
90
8
70
1
43
0.0
10
210.12166666666656
20
-3452.9446557865576
42
-0.41421356237315748
10
208.12166666666681
20
-3454.9446557865581
10
204.12166666666661
20
-3454.9446557865581
42
-0.41421356237286089
10
202.12166666666661
20
-3452.9446557865576
10
202.12166666666656
20
-3448.9446557865576
42
-0.41421356237295454
10
204.12166666666661
20
-3446.9446557865576
10
208.12166666666661
20
-3446.9446557865576
42
-0.41421356237295454
10
210.12166666666661
20
-3448.9446557865576
0
LWPOLYLINE
5
113
100
AcDbEntity
8
0
100
AcDbPolyline
90
8
70
1
43
0.0
10
121.12166666666658
20
-3381.9446557865576
42
-0.41421356237316009
10
119.12166666666681
20
-3383.9446557865581
10
115.12166666666661
20
-3383.9446557865581
42
-0.4142135623728635
10
113.12166666666663
20
-3381.9446557865576
10
113.12166666666654
20
-3377.9446557865572
42
-0.41421356237295714
10
115.12166666666661
20
-3375.9446557865572
10
119.12166666666663
20
-3375.9446557865572
42
-0.41421356237295714
10
121.12166666666664
20
-3377.9446557865572
0
LWPOLYLINE
5
114
100
AcDbEntity
8
0
100
AcDbPolyline
90
8
70
1
43
0.0
10
121.12166666666715
20
-3417.4446557865576
42
-0.41421356237307683
10
119.12166666666681
20
-3419.4446557865581
10
115.12166666666661
20
-3419.4446557865581
42
-0.4142135623728635
10
113.12166666666663
20
-3417.4446557865576
10
113.12166666666683
20
-3413.4446557865572
42
-0.41421356237308204
10
115.12166666666661
20
-3411.4446557865576
10
119.12166666666663
20
-3411.4446557865581
42
-0.41421356237299878
10
121.12166666666664
20
-3413.4446557865572
0
LWPOLYLINE
5
115
100
AcDbEntity
8
0
100
AcDbPolyline
90
8
70
1
43
0.0
10
150.78833333333324
20
-3310.9446557865572
42
-0.41421356237316265
10
148.78833333333347
20
-3312.9446557865576
10
144.7883333333333
20
-3312.9446557865576
42
-0.4142135623728635
10
142.7883333333333
20
-3310.9446557865572
10
142.78833333333321
20
-3306.9446557865567
42
-0.41421356237295714
10
144.7883333333333
20
-3304.9446557865572
10
148.7883333333333
20
-3304.9446557865572
42
-0.41421356237295714
10
150.7883333333333
20
-3306.9446557865567
0
LWPOLYLINE
5
116
100
AcDbEntity
8
0
100
AcDbPolyline
90
8
70
1
43
0.0
10
180.45499999999993
20
-3275.4446557865576
42
-0.41421356237316265
10
178.45500000000015
20
-3277.4446557865581
10
174.45499999999996
20
-3277.4446557865581
42
-0.41421356237286089
10
172.45499999999996
20
-3275.4446557865576
10
172.4549999999999
20
-3271.4446557865576
42
-0.41421356237295454
10
174.45499999999996
20
-3269.4446557865576
10
178.45499999999993
20
-3269.4446557865576
42
-0.41421356237295975
10
180.45499999999998
20
-3271.4446557865576
0
LWPOLYLINE
5
117
100
AcDbEntity
8
0
100
AcDbPolyline
90
8
70
1
43
0.0
10
239.78833333333324
20
-3275.4446557865576
42
-0.41421356237315748
10
237.7883333333335
20
-3277.4446557865581
10
233.7883333333333
20
-3277.4446557865581
42
-0.41421356237286089
10
231.7883333333333
20
-3275.4446557865576
10
231.78833333333324
20
-3271.4446557865576
42
-0.41421356237295454
10
233.7883333333333
20
-3269.4446557865576
10
237.7883333333333
20
-3269.4446557865576
42
-0.41421356237295454
10
239.7883333333333
20
-3271.4446557865576
0
LWPOLYLINE
5
118
100
AcDbEntity
8
0
100
AcDbPolyline
90
8
70
1
43
0.0
10
180.45499999999993
20
-3310.9446557865572
42
-0.41421356237316265
10
178.45500000000015
20
-3312.9446557865576
10
174.45499999999996
20
-3312.9446557865576
42
-0.41421356237286089
10
172.45499999999996
20
-3310.9446557865572
10
172.4549999999999
20
-3306.9446557865567
42
-0.41421356237295454
10
174.45499999999996
20
-3304.9446557865572
10
178.45499999999993
20
-3304.9446557865572
42
-0.41421356237295975
10
180.45499999999998
20
-3306.9446557865567
0
LWPOLYLINE
5
119
100
AcDbEntity
8
0
100
AcDbPolyline
90
8
70
1
43
0.0
10
91.455000000000481
20
-3239.9446557865576
42
-0.41421356237307944
10
89.455000000000126
20
-3241.9446557865581
10
85.45499999999997
20
-3241.9446557865581
42
-0.4142135623728635
10
83.454999999999956
20
-3239.9446557865576
10
83.455000000000169
20
-3235.9446557865572
42
-0.41421356237308204
10
85.45499999999997
20
-3233.9446557865576
10
89.454999999999956
20
-3233.9446557865576
42
-0.41421356237308204
10
91.454999999999956
20
-3235.9446557865572
0
LWPOLYLINE
5
120
100
AcDbEntity
8
0
100
AcDbPolyline
90
8
70
1
43
0.0
10
61.788333333333242
20
-3559.4446557865576
42
-0.41421356237316009
10
59.788333333333483
20
-3561.4446557865581
10
55.788333333333284
20
-3561.4446557865581
42
-0.41421356237286611
10
53.788333333333291
20
-3559.4446557865576
10
53.788333333333185
20
-3555.4446557865572
42
-0.41421356237295975
10
55.788333333333284
20
-3553.4446557865572
10
59.788333333333284
20
-3553.4446557865572
42
-0.41421356237295587
10
61.788333333333298
20
-3555.4446557865572
0
LWPOLYLINE
5
121
100
AcDbEntity
8
0
100
AcDbPolyline
90
8
70
1
43
0.0
10
269.45499999999993
20
-3381.9446557865576
42
-0.41421356237315748
10
267.45500000000015
20
-3383.9446557865581
10
263.45499999999998
20
-3383.9446557865581
42
-0.41421356237286089
10
261.45499999999998
20
-3381.9446557865576
10
261.45499999999993
20
-3377.9446557865572
42
-0.41421356237295454
10
263.45499999999998
20
-3375.9446557865572
10
267.45499999999998
20
-3375.9446557865572
42
-0.41421356237295454
10
269.45499999999998
20
-3377.9446557865572
0
LWPOLYLINE
5
122
100
AcDbEntity
8
0
100
AcDbPolyline
90
8
70
1
43
0.0
10
61.788333333333242
20
-3204.4446557865576
42
-0.41421356237316009
10
59.788333333333483
20
-3206.4446557865581
10
55.788333333333284
20
-3206.4446557865581
42
-0.41421356237286611
10
53.788333333333291
20
-3204.4446557865576
10
53.788333333333185
20
-3200.4446557865572
42
-0.41421356237295975
10
55.788333333333284
20
-3198.4446557865572
10
59.788333333333284
20
-3198.4446557865572
42
-0.41421356237295587
10
61.788333333333298
20
-3200.4446557865572
0
LWPOLYLINE
5
123
100
AcDbEntity
8
0
100
AcDbPolyline
90
8
70
1
43
0.0
10
32.121666666666577
20
-3559.4446557865576
42
-0.41421356237316137
10
30.121666666666805
20
-3561.4446557865581
10
26.121666666666627
20
-3561.4446557865581
42
-0.41421356237286611
10
24.121666666666624
20
-3559.4446557865576
10
24.121666666666528
20
-3555.4446557865572
42
-0.41421356237295975
10
26.121666666666627
20
-3553.4446557865572
10
30.12166666666662
20
-3553.4446557865572
42
-0.41421356237295781
10
32.12166666666662
20
-3555.4446557865572
0
LWPOLYLINE
5
124
100
AcDbEntity
8
0
100
AcDbPolyline
90
8
70
1
43
0.0
10
150.78833333333324
20
-3275.4446557865576
42
-0.41421356237316265
10
148.78833333333347
20
-3277.4446557865581
10
144.7883333333333
20
-3277.4446557865581
42
-0.4142135623728635
10
142.7883333333333
20
-3275.4446557865576
10
142.78833333333321
20
-3271.4446557865576
42
-0.41421356237295714
10
144.7883333333333
20
-3269.4446557865576
10
148.7883333333333
20
-3269.4446557865576
42
-0.41421356237295714
10
150.7883333333333
20
-3271.4446557865576
0
LWPOLYLINE
5
125
100
AcDbEntity
8
0
100
AcDbPolyline
90
8
70
1
43
0.0
10
269.45499999999993
20
-3310.9446557865572
42
-0.41421356237315748
10
267.45500000000015
20
-3312.9446557865576
10
263.45499999999998
20
-3312.9446557865576
42
-0.41421356237286089
10
261.45499999999998
20
-3310.9446557865572
10
261.45499999999993
20
-3306.9446557865567
42
-0.41421356237295454
10
263.45499999999998
20
-3304.9446557865572
10
267.45499999999998
20
-3304.9446557865572
42
-0.41421356237295454
10
269.45499999999998
20
-3306.9446557865567
0
LWPOLYLINE
5
126
100
AcDbEntity
8
0
100
AcDbPolyline
90
8
70
1
43
0.0
10
269.4550000000005
20
-3239.9446557865576
42
-0.41421356237307422
10
267.45500000000015
20
-3241.9446557865581
10
263.45499999999998
20
-3241.9446557865581
42
-0.41421356237286089
10
261.45499999999998
20
-3239.9446557865576
10
261.45500000000021
20
-3235.9446557865572
42
-0.41421356237307944
10
263.45499999999998
20
-3233.9446557865576
10
267.45499999999998
20
-3233.9446557865581
42
-0.41421356237299617
10
269.45499999999998
20
-3235.9446557865572
0
LWPOLYLINE
5
127
100
AcDbEntity
8
0
100
AcDbPolyline
90
8
70
1
43
0.0
10
150.78833333333381
20
-3239.9446557865576
42
-0.41421356237307944
10
148.78833333333347
20
-3241.9446557865581
10
144.7883333333333
20
-3241.9446557865581
42
-0.4142135623728635
10
142.7883333333333
20
-3239.9446557865576
10
142.7883333333335
20
-3235.9446557865572
42
-0.41421356237308204
10
144.7883333333333
20
-3233.9446557865576
10
148.7883333333333
20
-3233.9446557865576
42
-0.41421356237308204
10
150.7883333333333
20
-3235.9446557865572
0
LWPOLYLINE
5
128
100
AcDbEntity
8
0
100
AcDbPolyline
90
8
70
1
43
0.0
10
61.788333333333242
20
-3381.9446557865576
42
-0.41421356237316009
10
59.788333333333483
20
-3383.9446557865581
10
55.788333333333284
20
-3383.9446557865581
42
-0.41421356237286611
10
53.788333333333291
20
-3381.9446557865576
10
53.788333333333185
20
-3377.9446557865572
42
-0.41421356237295975
10
55.788333333333284
20
-3375.9446557865572
10
59.788333333333284
20
-3375.9446557865572
42
-0.41421356237295587
10
61.788333333333298
20
-3377.9446557865572
0
LWPOLYLINE
5
129
100
AcDbEntity
8
0
100
AcDbPolyline
90
8
70
1
43
0.0
10
239.78833333333324
20
-3452.9446557865576
42
-0.41421356237315748
10
237.7883333333335
20
-3454.9446557865581
10
233.7883333333333
20
-3454.9446557865581
42
-0.41421356237286089
10
231.7883333333333
20
-3452.9446557865576
10
231.78833333333324
20
-3448.9446557865576
42
-0.41421356237295454
10
233.7883333333333
20
-3446.9446557865576
10
237.7883333333333
20
-3446.9446557865576
42
-0.41421356237295454
10
239.7883333333333
20
-3448.9446557865576
0
LWPOLYLINE
5
130
100
AcDbEntity
8
0
100
AcDbPolyline
90
8
70
1
43
0.0
10
32.121666666666577
20
-3381.9446557865576
42
-0.41421356237316137
10
30.121666666666805
20
-3383.9446557865581
10
26.121666666666627
20
-3383.9446557865581
42
-0.41421356237286611
10
24.121666666666624
20
-3381.9446557865576
10
24.121666666666528
20
-3377.9446557865572
42
-0.41421356237295975
10
26.121666666666627
20
-3375.9446557865572
10
30.12166666666662
20
-3375.9446557865572
42
-0.41421356237295781
10
32.12166666666662
20
-3377.9446557865572
0
LWPOLYLINE
5
131
100
AcDbEntity
8
0
100
AcDbPolyline
90
8
70
1
43
0.0
10
61.78833333333381
20
-3346.4446557865576
42
-0.41421356237307683
10
59.788333333333483
20
-3348.4446557865576
10
55.788333333333284
20
-3348.4446557865576
42
-0.41421356237286611
10
53.788333333333291
20
-3346.4446557865576
10
53.788333333333469
20
-3342.4446557865572
42
-0.4142135623730846
10
55.788333333333284
20
-3340.4446557865572
10
59.788333333333284
20
-3340.4446557865576
42
-0.4142135623729975
10
61.788333333333298
20
-3342.4446557865572
0
LWPOLYLINE
5
132
100
AcDbEntity
8
0
100
AcDbPolyline
90
8
70
1
43
0.0
10
91.454999999999913
20
-3452.9446557865576
42
-0.41421356237316265
10
89.455000000000126
20
-3454.9446557865581
10
85.45499999999997
20
-3454.9446557865581
42
-0.4142135623728635
10
83.454999999999956
20
-3452.9446557865576
10
83.454999999999885
20
-3448.9446557865576
42
-0.41421356237295714
10
85.45499999999997
20
-3446.9446557865576
10
89.454999999999956
20
-3446.9446557865576
42
-0.41421356237295714
10
91.454999999999956
20
-3448.9446557865576
0
LWPOLYLINE
5
133
100
AcDbEntity
8
0
100
AcDbPolyline
90
8
70
1
43
0.0
10
150.78833333333324
20
-3452.9446557865576
42
-0.41421356237316265
10
148.78833333333347
20
-3454.9446557865581
10
144.7883333333333
20
-3454.9446557865581
42
-0.4142135623728635
10
142.7883333333333
20
-3452.9446557865576
10
142.78833333333321
20
-3448.9446557865576
42
-0.41421356237295714
10
144.7883333333333
20
-3446.9446557865576
10
148.7883333333333
20
-3446.9446557865576
42
-0.41421356237295714
10
150.7883333333333
20
-3448.9446557865576
0
LWPOLYLINE
5
134
100
AcDbEntity
8
0
100
AcDbPolyline
90
8
70
1
43
0.0
10
32.121666666667146
20
-3239.9446557865576
42
-0.4142135623730781
10
30.121666666666805
20
-3241.9446557865581
10
26.121666666666627
20
-3241.9446557865581
42
-0.41421356237286611
10
24.121666666666624
20
-3239.9446557865576
10
24.121666666666812
20
-3235.9446557865572
42
-0.4142135623730846
10
26.121666666666627
20
-3233.9446557865576
10
30.12166666666662
20
-3233.9446557865576
42
-0.41421356237308266
10
32.12166666666662
20
-3235.9446557865572
0
LWPOLYLINE
5
135
100
AcDbEntity
8
0
100
AcDbPolyline
90
8
70
1
43
0.0
10
32.121666666666577
20
-3275.4446557865576
42
-0.41421356237316137
10
30.121666666666805
20
-3277.4446557865581
10
26.121666666666627
20
-3277.4446557865581
42
-0.41421356237286611
10
24.121666666666624
20
-3275.4446557865576
10
24.121666666666528
20
-3271.4446557865576
42
-0.41421356237295975
10
26.121666666666627
20
-3269.4446557865576
10
30.12166666666662
20
-3269.4446557865576
42
-0.41421356237295781
10
32.12166666666662
20
-3271.4446557865576
0
LWPOLYLINE
5
136
100
AcDbEntity
8
0
100
AcDbPolyline
90
8
70
1
43
0.0
10
150.78833333333324
20
-3559.4446557865576
42
-0.41421356237316265
10
148.78833333333347
20
-3561.4446557865581
10
144.7883333333333
20
-3561.4446557865581
42
-0.4142135623728635
10
142.7883333333333
20
-3559.4446557865576
10
142.78833333333321
20
-3555.4446557865572
42
-0.41421356237295714
10
144.7883333333333
20
-3553.4446557865572
10
148.7883333333333
20
-3553.4446557865572
42
-0.41421356237295714
10
150.7883333333333
20
-3555.4446557865572
0
LWPOLYLINE
5
137
100
AcDbEntity
8
0
100
AcDbPolyline
90
8
70
1
43
0.0
10
121.12166666666658
20
-3559.4446557865576
42
-0.41421356237316009
10
119.12166666666681
20
-3561.4446557865581
10
115.12166666666661
20
-3561.4446557865581
42
-0.4142135623728635
10
113.12166666666663
20
-3559.4446557865576
10
113.12166666666654
20
-3555.4446557865572
42
-0.41421356237295714
10
115.12166666666661
20
-3553.4446557865572
10
119.12166666666663
20
-3553.4446557865572
42
-0.41421356237295714
10
121.12166666666664
20
-3555.4446557865572
0
LWPOLYLINE
5
138
100
AcDbEntity
8
0
100
AcDbPolyline
90
8
70
1
43
0.0
10
121.12166666666715
20
-3488.4446557865576
42
-0.41421356237307683
10
119.12166666666681
20
-3490.4446557865585
10
115.12166666666661
20
-3490.4446557865585
42
-0.4142135623728635
10
113.12166666666663
20
-3488.4446557865576
10
113.12166666666683
20
-3484.4446557865576
42
-0.41421356237308204
10
115.12166666666661
20
-3482.4446557865576
10
119.12166666666663
20
-3482.4446557865581
42
-0.41421356237299878
10
121.12166666666664
20
-3484.4446557865576
0
LWPOLYLINE
5
139
100
AcDbEntity
8
0
100
AcDbPolyline
90
8
70
1
43
0.0
10
150.78833333333381
20
-3523.9446557865576
42
-0.41421356237307944
10
148.78833333333347
20
-3525.9446557865576
10
144.7883333333333
20
-3525.9446557865576
42
-0.4142135623728635
10
142.7883333333333
20
-3523.9446557865576
10
142.7883333333335
20
-3519.9446557865572
42
-0.41421356237308204
10
144.7883333333333
20
-3517.9446557865572
10
148.7883333333333
20
-3517.9446557865572
42
-0.41421356237308204
10
150.7883333333333
20
-3519.9446557865572
0
LWPOLYLINE
5
140
100
AcDbEntity
8
0
100
AcDbPolyline
90
8
70
1
43
0.0
10
32.121666666666577
20
-3310.9446557865572
42
-0.41421356237316137
10
30.121666666666805
20
-3312.9446557865576
10
26.121666666666627
20
-3312.9446557865576
42
-0.41421356237286611
10
24.121666666666624
20
-3310.9446557865572
10
24.121666666666528
20
-3306.9446557865567
42
-0.41421356237295975
10
26.121666666666627
20
-3304.9446557865572
10
30.12166666666662
20
-3304.9446557865572
42
-0.41421356237295781
10
32.12166666666662
20
-3306.9446557865567
0
LWPOLYLINE
5
141
100
AcDbEntity
8
0
100
AcDbPolyline
90
8
70
1
43
0.0
10
61.78833333333381
20
-3488.4446557865576
42
-0.41421356237307683
10
59.788333333333483
20
-3490.4446557865585
10
55.788333333333284
20
-3490.4446557865585
42
-0.41421356237286611
10
53.788333333333291
20
-3488.4446557865576
10
53.788333333333469
20
-3484.4446557865576
42
-0.4142135623730846
10
55.788333333333284
20
-3482.4446557865576
10
59.788333333333284
20
-3482.4446557865581
42
-0.4142135623729975
10
61.788333333333298
20
-3484.4446557865576
0
LWPOLYLINE
5
142
100
AcDbEntity
8
0
100
AcDbPolyline
90
8
70
1
43
0.0
10
150.78833333333381
20
-3488.4446557865576
42
-0.41421356237307944
10
148.78833333333347
20
-3490.4446557865585
10
144.7883333333333
20
-3490.4446557865585
42
-0.4142135623728635
10
142.7883333333333
20
-3488.4446557865576
10
142.7883333333335
20
-3484.4446557865576
42
-0.41421356237308204
10
144.7883333333333
20
-3482.4446557865576
10
148.7883333333333
20
-3482.4446557865576
42
-0.41421356237308204
10
150.7883333333333
20
-3484.4446557865576
0
LWPOLYLINE
5
143
100
AcDbEntity
8
0
100
AcDbPolyline
90
8
70
1
43
0.0
10
61.788333333333242
20
-3452.9446557865576
42
-0.41421356237316009
10
59.788333333333483
20
-3454.9446557865581
10
55.788333333333284
20
-3454.9446557865581
42
-0.41421356237286611
10
53.788333333333291
20
-3452.9446557865576
10
53.788333333333185
20
-3448.9446557865576
42
-0.41421356237295975
10
55.788333333333284
20
-3446.9446557865576
10
59.788333333333284
20
-3446.9446557865576
42
-0.41421356237295587
10
61.788333333333298
20
-3448.9446557865576
0
LWPOLYLINE
5
144
100
AcDbEntity
8
0
100
AcDbPolyline
90
8
70
1
43
0.0
10
210.12166666666712
20
-3488.4446557865576
42
-0.41421356237307422
10
208.12166666666681
20
-3490.4446557865585
10
204.12166666666661
20
-3490.4446557865585
42
-0.41421356237286089
10
202.12166666666661
20
-3488.4446557865576
10
202.12166666666684
20
-3484.4446557865576
42
-0.41421356237307944
10
204.12166666666661
20
-3482.4446557865576
10
208.12166666666661
20
-3482.4446557865581
42
-0.41421356237299617
10
210.12166666666661
20
-3484.4446557865576
0
LWPOLYLINE
5
145
100
AcDbEntity
8
0
100
AcDbPolyline
90
8
70
1
43
0.0
10
91.454999999999913
20
-3559.4446557865576
42
-0.41421356237316265
10
89.455000000000126
20
-3561.4446557865581
10
85.45499999999997
20
-3561.4446557865581
42
-0.4142135623728635
10
83.454999999999956
20
-3559.4446557865576
10
83.454999999999885
20
-3555.4446557865572
42
-0.41421356237295714
10
85.45499999999997
20
-3553.4446557865572
10
89.454999999999956
20
-3553.4446557865572
42
-0.41421356237295714
10
91.454999999999956
20
-3555.4446557865572
0
LWPOLYLINE
5
146
100
AcDbEntity
8
0
100
AcDbPolyline
90
8
70
1
43
0.0
10
61.788333333333242
20
-3275.4446557865576
42
-0.41421356237316009
10
59.788333333333483
20
-3277.4446557865581
10
55.788333333333284
20
-3277.4446557865581
42
-0.41421356237286611
10
53.788333333333291
20
-3275.4446557865576
10
53.788333333333185
20
-3271.4446557865576
42
-0.41421356237295975
10
55.788333333333284
20
-3269.4446557865576
10
59.788333333333284
20
-3269.4446557865576
42
-0.41421356237295587
10
61.788333333333298
20
-3271.4446557865576
0
LWPOLYLINE
5
147
100
AcDbEntity
8
0
100
AcDbPolyline
90
8
70
1
43
0.0
10
180.4550000000005
20
-3488.4446557865576
42
-0.41421356237307944
10
178.45500000000015
20
-3490.4446557865585
10
174.45499999999996
20
-3490.4446557865585
42
-0.41421356237286089
10
172.45499999999996
20
-3488.4446557865576
10
172.45500000000018
20
-3484.4446557865576
42
-0.41421356237307944
10
174.45499999999996
20
-3482.4446557865576
10
178.45499999999993
20
-3482.4446557865576
42
-0.4142135623730846
10
180.45499999999998
20
-3484.4446557865576
0
LWPOLYLINE
5
148
100
AcDbEntity
8
0
100
AcDbPolyline
90
8
70
1
43
0.0
10
32.121666666667146
20
-3488.4446557865576
42
-0.4142135623730781
10
30.121666666666805
20
-3490.4446557865585
10
26.121666666666627
20
-3490.4446557865585
42
-0.41421356237286611
10
24.121666666666624
20
-3488.4446557865576
10
24.121666666666812
20
-3484.4446557865576
42
-0.4142135623730846
10
26.121666666666627
20
-3482.4446557865576
10
30.12166666666662
20
-3482.4446557865576
42
-0.41421356237308266
10
32.12166666666662
20
-3484.4446557865576
0
LWPOLYLINE
5
149
100
AcDbEntity
8
0
100
AcDbPolyline
90
8
70
1
43
0.0
10
269.4550000000005
20
-3488.4446557865576
42
-0.41421356237307422
10
267.45500000000015
20
-3490.4446557865585
10
263.45499999999998
20
-3490.4446557865585
42
-0.41421356237286089
10
261.45499999999998
20
-3488.4446557865576
10
261.45500000000021
20
-3484.4446557865576
42
-0.41421356237307944
10
263.45499999999998
20
-3482.4446557865576
10
267.45499999999998
20
-3482.4446557865581
42
-0.41421356237299617
10
269.45499999999998
20
-3484.4446557865576
0
LWPOLYLINE
5
150
100
AcDbEntity
8
0
100
AcDbPolyline
90
8
70
1
43
0.0
10
91.454999999999913
20
-3381.9446557865576
42
-0.41421356237316265
10
89.455000000000126
20
-3383.9446557865581
10
85.45499999999997
20
-3383.9446557865581
42
-0.4142135623728635
10
83.454999999999956
20
-3381.9446557865576
10
83.454999999999885
20
-3377.9446557865572
42
-0.41421356237295714
10
85.45499999999997
20
-3375.9446557865572
10
89.454999999999956
20
-3375.9446557865572
42
-0.41421356237295714
10
91.454999999999956
20
-3377.9446557865572
0
LWPOLYLINE
5
151
100
AcDbEntity
8
0
100
AcDbPolyline
90
8
70
1
43
0.0
10
180.45499999999993
20
-3452.9446557865576
42
-0.41421356237316265
10
178.45500000000015
20
-3454.9446557865581
10
174.45499999999996
20
-3454.9446557865581
42
-0.41421356237286089
10
172.45499999999996
20
-3452.9446557865576
10
172.4549999999999
20
-3448.9446557865576
42
-0.41421356237295454
10
174.45499999999996
20
-3446.9446557865576
10
178.45499999999993
20
-3446.9446557865576
42
-0.41421356237295975
10
180.45499999999998
20
-3448.9446557865576
0
LWPOLYLINE
5
152
100
AcDbEntity
8
0
100
AcDbPolyline
90
8
70
1
43
0.0
10
32.121666666667146
20
-3417.4446557865576
42
-0.4142135623730781
10
30.121666666666805
20
-3419.4446557865581
10
26.121666666666627
20
-3419.4446557865581
42
-0.41421356237286611
10
24.121666666666624
20
-3417.4446557865576
10
24.121666666666812
20
-3413.4446557865572
42
-0.4142135623730846
10
26.121666666666627
20
-3411.4446557865576
10
30.12166666666662
20
-3411.4446557865576
42
-0.41421356237308266
10
32.12166666666662
20
-3413.4446557865572
0
LWPOLYLINE
5
153
100
AcDbEntity
8
0
100
AcDbPolyline
90
8
70
1
43
0.0
10
150.78833333333381
20
-3417.4446557865576
42
-0.41421356237307944
10
148.78833333333347
20
-3419.4446557865581
10
144.7883333333333
20
-3419.4446557865581
42
-0.4142135623728635
10
142.7883333333333
20
-3417.4446557865576
10
142.7883333333335
20
-3413.4446557865572
42
-0.41421356237308204
10
144.7883333333333
20
-3411.4446557865576
10
148.7883333333333
20
-3411.4446557865576
42
-0.41421356237308204
10
150.7883333333333
20
-3413.4446557865572
0
LWPOLYLINE
5
154
100
AcDbEntity
8
0
100
AcDbPolyline
90
8
70
1
43
0.0
10
150.78833333333324
20
-3204.4446557865576
42
-0.41421356237316265
10
148.78833333333347
20
-3206.4446557865581
10
144.7883333333333
20
-3206.4446557865581
42
-0.4142135623728635
10
142.7883333333333
20
-3204.4446557865576
10
142.78833333333321
20
-3200.4446557865572
42
-0.41421356237295714
10
144.7883333333333
20
-3198.4446557865572
10
148.7883333333333
20
-3198.4446557865572
42
-0.41421356237295714
10
150.7883333333333
20
-3200.4446557865572
0
LWPOLYLINE
5
155
100
AcDbEntity
8
0
100
AcDbPolyline
90
8
70
1
43
0.0
10
269.45499999999993
20
-3275.4446557865576
42
-0.41421356237315748
10
267.45500000000015
20
-3277.4446557865581
10
263.45499999999998
20
-3277.4446557865581
42
-0.41421356237286089
10
261.45499999999998
20
-3275.4446557865576
10
261.45499999999993
20
-3271.4446557865576
42
-0.41421356237295454
10
263.45499999999998
20
-3269.4446557865576
10
267.45499999999998
20
-3269.4446557865576
42
-0.41421356237295454
10
269.45499999999998
20
-3271.4446557865576
0
LWPOLYLINE
5
156
100
AcDbEntity
8
0
100
AcDbPolyline
90
8
70
1
43
0.0
10
121.12166666666658
20
-3204.4446557865576
42
-0.41421356237316009
10
119.12166666666681
20
-3206.4446557865581
10
115.12166666666661
20
-3206.4446557865581
42
-0.4142135623728635
10
113.12166666666663
20
-3204.4446557865576
10
113.12166666666654
20
-3200.4446557865572
42
-0.41421356237295714
10
115.12166666666661
20
-3198.4446557865572
10
119.12166666666663
20
-3198.4446557865572
42
-0.41421356237295714
10
121.12166666666664
20
-3200.4446557865572
0
LWPOLYLINE
5
157
100
AcDbEntity
8
0
100
AcDbPolyline
90
8
70
1
43
0.0
10
210.12166666666656
20
-3310.9446557865572
42
-0.41421356237315748
10
208.12166666666681
20
-3312.9446557865576
10
204.12166666666661
20
-3312.9446557865576
42
-0.41421356237286089
10
202.12166666666661
20
-3310.9446557865572
10
202.12166666666656
20
-3306.9446557865567
42
-0.41421356237295454
10
204.12166666666661
20
-3304.9446557865572
10
208.12166666666661
20
-3304.9446557865572
42
-0.41421356237295454
10
210.12166666666661
20
-3306.9446557865567
0
LWPOLYLINE
5
158
100
AcDbEntity
8
0
100
AcDbPolyline
90
8
70
1
43
0.0
10
269.4550000000005
20
-3346.4446557865576
42
-0.41421356237307422
10
267.45500000000015
20
-3348.4446557865576
10
263.45499999999998
20
-3348.4446557865576
42
-0.41421356237286089
10
261.45499999999998
20
-3346.4446557865576
10
261.45500000000021
20
-3342.4446557865572
42
-0.41421356237307944
10
263.45499999999998
20
-3340.4446557865572
10
267.45499999999998
20
-3340.4446557865576
42
-0.41421356237299617
10
269.45499999999998
20
-3342.4446557865572
0
LWPOLYLINE
5
159
100
AcDbEntity
8
0
100
AcDbPolyline
90
8
70
1
43
0.0
10
180.4550000000005
20
-3346.4446557865576
42
-0.41421356237307944
10
178.45500000000015
20
-3348.4446557865576
10
174.45499999999996
20
-3348.4446557865576
42
-0.41421356237286089
10
172.45499999999996
20
-3346.4446557865576
10
172.45500000000018
20
-3342.4446557865572
42
-0.41421356237307944
10
174.45499999999996
20
-3340.4446557865572
10
178.45499999999993
20
-3340.4446557865572
42
-0.4142135623730846
10
180.45499999999998
20
-3342.4446557865572
0
LWPOLYLINE
5
160
100
AcDbEntity
8
0
100
AcDbPolyline
90
8
70
1
43
0.0
10
91.454999999999913
20
-3204.4446557865576
42
-0.41421356237316265
10
89.455000000000126
20
-3206.4446557865581
10
85.45499999999997
20
-3206.4446557865581
42
-0.4142135623728635
10
83.454999999999956
20
-3204.4446557865576
10
83.454999999999885
20
-3200.4446557865572
42
-0.41421356237295714
10
85.45499999999997
20
-3198.4446557865572
10
89.454999999999956
20
-3198.4446557865572
42
-0.41421356237295714
10
91.454999999999956
20
-3200.4446557865572
0
LWPOLYLINE
5
161
100
AcDbEntity
8
0
100
AcDbPolyline
90
8
70
1
43
0.0
10
150.78833333333324
20
-3381.9446557865576
42
-0.41421356237316265
10
148.78833333333347
20
-3383.9446557865581
10
144.7883333333333
20
-3383.9446557865581
42
-0.4142135623728635
10
142.7883333333333
20
-3381.9446557865576
10
142.78833333333321
20
-3377.9446557865572
42
-0.41421356237295714
10
144.7883333333333
20
-3375.9446557865572
10
148.7883333333333
20
-3375.9446557865572
42
-0.41421356237295714
10
150.7883333333333
20
-3377.9446557865572
0
LWPOLYLINE
5
162
100
AcDbEntity
8
0
100
AcDbPolyline
90
8
70
1
43
0.0
10
121.12166666666715
20
-3239.9446557865576
42
-0.41421356237307683
10
119.12166666666681
20
-3241.9446557865581
10
115.12166666666661
20
-3241.9446557865581
42
-0.4142135623728635
10
113.12166666666663
20
-3239.9446557865576
10
113.12166666666683
20
-3235.9446557865572
42
-0.41421356237308204
10
115.12166666666661
20
-3233.9446557865576
10
119.12166666666663
20
-3233.9446557865581
42
-0.41421356237299878
10
121.12166666666664
20
-3235.9446557865572
0
LWPOLYLINE
5
163
100
AcDbEntity
8
0
100
AcDbPolyline
90
8
70
1
43
0.0
10
150.78833333333381
20
-3346.4446557865576
42
-0.41421356237307944
10
148.78833333333347
20
-3348.4446557865576
10
144.7883333333333
20
-3348.4446557865576
42
-0.4142135623728635
10
142.7883333333333
20
-3346.4446557865576
10
142.7883333333335
20
-3342.4446557865572
42
-0.41421356237308204
10
144.7883333333333
20
-3340.4446557865572
10
148.7883333333333
20
-3340.4446557865572
42
-0.41421356237308204
10
150.7883333333333
20
-3342.4446557865572
0
LWPOLYLINE
5
164
100
AcDbEntity
8
0
100
AcDbPolyline
90
8
70
1
43
0.0
10
32.121666666666577
20
-3204.4446557865576
42
-0.41421356237316137
10
30.121666666666805
20
-3206.4446557865581
10
26.121666666666627
20
-3206.4446557865581
42
-0.41421356237286611
10
24.121666666666624
20
-3204.4446557865576
10
24.121666666666528
20
-3200.4446557865572
42
-0.41421356237295975
10
26.121666666666627
20
-3198.4446557865572
10
30.12166666666662
20
-3198.4446557865572
42
-0.41421356237295781
10
32.12166666666662
20
-3200.4446557865572
0
LWPOLYLINE
5
165
100
AcDbEntity
8
0
100
AcDbPolyline
90
8
70
1
43
0.0
10
210.12166666666656
20
-3275.4446557865576
42
-0.41421356237315748
10
208.12166666666681
20
-3277.4446557865581
10
204.12166666666661
20
-3277.4446557865581
42
-0.41421356237286089
10
202.12166666666661
20
-3275.4446557865576
10
202.12166666666656
20
-3271.4446557865576
42
-0.41421356237295454
10
204.12166666666661
20
-3269.4446557865576
10
208.12166666666661
20
-3269.4446557865576
42
-0.41421356237295454
10
210.12166666666661
20
-3271.4446557865576
0
LWPOLYLINE
5
166
100
AcDbEntity
8
0
100
AcDbPolyline
90
8
70
1
43
0.0
10
239.78833333333324
20
-3310.9446557865572
42
-0.41421356237315748
10
237.7883333333335
20
-3312.9446557865576
10
233.7883333333333
20
-3312.9446557865576
42
-0.41421356237286089
10
231.7883333333333
20
-3310.9446557865572
10
231.78833333333324
20
-3306.9446557865567
42
-0.41421356237295454
10
233.7883333333333
20
-3304.9446557865572
10
237.7883333333333
20
-3304.9446557865572
42
-0.41421356237295454
10
239.7883333333333
20
-3306.9446557865567
0
LWPOLYLINE
5
167
100
AcDbEntity
8
0
100
AcDbPolyline
90
8
70
1
43
0.0
10
269.45499999999993
20
-3204.4446557865576
42
-0.41421356237315748
10
267.45500000000015
20
-3206.4446557865581
10
263.45499999999998
20
-3206.4446557865581
42
-0.41421356237286089
10
261.45499999999998
20
-3204.4446557865576
10
261.45499999999993
20
-3200.4446557865572
42
-0.41421356237295454
10
263.45499999999998
20
-3198.4446557865572
10
267.45499999999998
20
-3198.4446557865572
42
-0.41421356237295454
10
269.45499999999998
20
-3200.4446557865572
0
LWPOLYLINE
5
168
100
AcDbEntity
8
0
100
AcDbPolyline
90
8
70
1
43
0.0
10
239.78833333333381
20
-3346.4446557865576
42
-0.41421356237307422
10
237.7883333333335
20
-3348.4446557865576
10
233.7883333333333
20
-3348.4446557865576
42
-0.41421356237286089
10
231.7883333333333
20
-3346.4446557865576
10
231.78833333333353
20
-3342.4446557865572
42
-0.41421356237307944
10
233.7883333333333
20
-3340.4446557865572
10
237.7883333333333
20
-3340.4446557865576
42
-0.41421356237299617
10
239.7883333333333
20
-3342.4446557865572
0
LWPOLYLINE
5
169
100
AcDbEntity
8
0
100
AcDbPolyline
90
8
70
1
43
0.0
10
210.12166666666712
20
-3346.4446557865576
42
-0.41421356237307422
10
208.12166666666681
20
-3348.4446557865576
10
204.12166666666661
20
-3348.4446557865576
42
-0.41421356237286089
10
202.12166666666661
20
-3346.4446557865576
10
202.12166666666684
20
-3342.4446557865572
42
-0.41421356237307944
10
204.12166666666661
20
-3340.4446557865572
10
208.12166666666661
20
-3340.4446557865576
42
-0.41421356237299617
10
210.12166666666661
20
-3342.4446557865572
0
LWPOLYLINE
5
170
100
AcDbEntity
8
0
100
AcDbPolyline
90
8
70
1
43
0.0
10
269.4550000000005
20
-3417.4446557865576
42
-0.41421356237307422
10
267.45500000000015
20
-3419.4446557865581
10
263.45499999999998
20
-3419.4446557865581
42
-0.41421356237286089
10
261.45499999999998
20
-3417.4446557865576
10
261.45500000000021
20
-3413.4446557865572
42
-0.41421356237307944
10
263.45499999999998
20
-3411.4446557865576
10
267.45499999999998
20
-3411.4446557865581
42
-0.41421356237299617
10
269.45499999999998
20
-3413.4446557865572
0
LWPOLYLINE
5
171
100
AcDbEntity
8
0
100
AcDbPolyline
90
8
70
1
43
0.0
10
91.455000000000481
20
-3417.4446557865576
42
-0.41421356237307944
10
89.455000000000126
20
-3419.4446557865581
10
85.45499999999997
20
-3419.4446557865581
42
-0.4142135623728635
10
83.454999999999956
20
-3417.4446557865576
10
83.455000000000169
20
-3413.4446557865572
42
-0.41421356237308204
10
85.45499999999997
20
-3411.4446557865576
10
89.454999999999956
20
-3411.4446557865576
42
-0.41421356237308204
10
91.454999999999956
20
-3413.4446557865572
0
LWPOLYLINE
5
172
100
AcDbEntity
8
0
100
AcDbPolyline
90
8
70
1
43
0.0
10
61.78833333333381
20
-3417.4446557865576
42
-0.41421356237307683
10
59.788333333333483
20
-3419.4446557865581
10
55.788333333333284
20
-3419.4446557865581
42
-0.41421356237286611
10
53.788333333333291
20
-3417.4446557865576
10
53.788333333333469
20
-3413.4446557865572
42
-0.4142135623730846
10
55.788333333333284
20
-3411.4446557865576
10
59.788333333333284
20
-3411.4446557865581
42
-0.4142135623729975
10
61.788333333333298
20
-3413.4446557865572
0
LWPOLYLINE
5
173
100
AcDbEntity
8
0
100
AcDbPolyline
90
8
70
1
43
0.0
10
91.455000000000481
20
-3346.4446557865576
42
-0.41421356237307944
10
89.455000000000126
20
-3348.4446557865576
10
85.45499999999997
20
-3348.4446557865576
42
-0.4142135623728635
10
83.454999999999956
20
-3346.4446557865576
10
83.455000000000169
20
-3342.4446557865572
42
-0.41421356237308204
10
85.45499999999997
20
-3340.4446557865572
10
89.454999999999956
20
-3340.4446557865572
42
-0.41421356237308204
10
91.454999999999956
20
-3342.4446557865572
0
LWPOLYLINE
5
174
100
AcDbEntity
8
0
100
AcDbPolyline
90
8
70
1
43
0.0
10
269.45499999999993
20
-3452.9446557865576
42
-0.41421356237315748
10
267.45500000000015
20
-3454.9446557865581
10
263.45499999999998
20
-3454.9446557865581
42
-0.41421356237286089
10
261.45499999999998
20
-3452.9446557865576
10
261.45499999999993
20
-3448.9446557865576
42
-0.41421356237295454
10
263.45499999999998
20
-3446.9446557865576
10
267.45499999999998
20
-3446.9446557865576
42
-0.41421356237295454
10
269.45499999999998
20
-3448.9446557865576
0
LWPOLYLINE
5
175
100
AcDbEntity
8
0
100
AcDbPolyline
90
8
70
1
43
0.0
10
239.78833333333381
20
-3488.4446557865576
42
-0.41421356237307422
10
237.7883333333335
20
-3490.4446557865585
10
233.7883333333333
20
-3490.4446557865585
42
-0.41421356237286089
10
231.7883333333333
20
-3488.4446557865576
10
231.78833333333353
20
-3484.4446557865576
42
-0.41421356237307944
10
233.7883333333333
20
-3482.4446557865576
10
237.7883333333333
20
-3482.4446557865581
42
-0.41421356237299617
10
239.7883333333333
20
-3484.4446557865576
0
LWPOLYLINE
5
176
100
AcDbEntity
8
0
100
AcDbPolyline
90
8
70
1
43
0.0
10
61.78833333333381
20
-3523.9446557865576
42
-0.41421356237307683
10
59.788333333333483
20
-3525.9446557865576
10
55.788333333333284
20
-3525.9446557865576
42
-0.41421356237286611
10
53.788333333333291
20
-3523.9446557865576
10
53.788333333333469
20
-3519.9446557865572
42
-0.4142135623730846
10
55.788333333333284
20
-3517.9446557865572
10
59.788333333333284
20
-3517.9446557865576
42
-0.4142135623729975
10
61.788333333333298
20
-3519.9446557865572
0
LWPOLYLINE
5
177
100
AcDbEntity
8
0
100
AcDbPolyline
90
8
70
1
43
0.0
10
121.12166666666715
20
-3346.4446557865576
42
-0.41421356237307683
10
119.12166666666681
20
-3348.4446557865576
10
115.12166666666661
20
-3348.4446557865576
42
-0.4142135623728635
10
113.12166666666663
20
-3346.4446557865576
10
113.12166666666683
20
-3342.4446557865572
42
-0.41421356237308204
10
115.12166666666661
20
-3340.4446557865572
10
119.12166666666663
20
-3340.4446557865576
42
-0.41421356237299878
10
121.12166666666664
20
-3342.4446557865572
0
LWPOLYLINE
5
178
100
AcDbEntity
8
0
100
AcDbPolyline
90
8
70
1
43
0.0
10
121.12166666666658
20
-3275.4446557865576
42
-0.41421356237316009
10
119.12166666666681
20
-3277.4446557865581
10
115.12166666666661
20
-3277.4446557865581
42
-0.4142135623728635
10
113.12166666666663
20
-3275.4446557865576
10
113.12166666666654
20
-3271.4446557865576
42
-0.41421356237295714
10
115.12166666666661
20
-3269.4446557865576
10
119.12166666666663
20
-3269.4446557865576
42
-0.41421356237295714
10
121.12166666666664
20
-3271.4446557865576
0
LWPOLYLINE
5
179
100
AcDbEntity
8
0
100
AcDbPolyline
90
8
70
1
43
0.0
10
61.78833333333381
20
-3239.9446557865576
42
-0.41421356237307683
10
59.788333333333483
20
-3241.9446557865581
10
55.788333333333284
20
-3241.9446557865581
42
-0.41421356237286611
10
53.788333333333291
20
-3239.9446557865576
10
53.788333333333469
20
-3235.9446557865572
42
-0.4142135623730846
10
55.788333333333284
20
-3233.9446557865576
10
59.788333333333284
20
-3233.9446557865581
42
-0.4142135623729975
10
61.788333333333298
20
-3235.9446557865572
0
LWPOLYLINE
5
180
100
AcDbEntity
8
0
100
AcDbPolyline
90
8
70
1
43
0.0
10
121.12166666666715
20
-3523.9446557865576
42
-0.41421356237307683
10
119.12166666666681
20
-3525.9446557865576
10
115.12166666666661
20
-3525.9446557865576
42
-0.4142135623728635
10
113.12166666666663
20
-3523.9446557865576
10
113.12166666666683
20
-3519.9446557865572
42
-0.41421356237308204
10
115.12166666666661
20
-3517.9446557865572
10
119.12166666666663
20
-3517.9446557865576
42
-0.41421356237299878
10
121.12166666666664
20
-3519.9446557865572
0
LWPOLYLINE
5
181
100
AcDbEntity
8
0
100
AcDbPolyline
90
8
70
1
43
0.0
10
91.454999999999913
20
-3310.9446557865572
42
-0.41421356237316265
10
89.455000000000126
20
-3312.9446557865576
10
85.45499999999997
20
-3312.9446557865576
42
-0.4142135623728635
10
83.454999999999956
20
-3310.9446557865572
10
83.454999999999885
20
-3306.9446557865567
42
-0.41421356237295714
10
85.45499999999997
20
-3304.9446557865572
10
89.454999999999956
20
-3304.9446557865572
42
-0.41421356237295714
10
91.454999999999956
20
-3306.9446557865567
0
LWPOLYLINE
5
182
100
AcDbEntity
8
0
100
AcDbPolyline
90
8
70
1
43
0.0
10
91.455000000000481
20
-3523.9446557865576
42
-0.41421356237307944
10
89.455000000000126
20
-3525.9446557865576
10
85.45499999999997
20
-3525.9446557865576
42
-0.4142135623728635
10
83.454999999999956
20
-3523.9446557865576
10
83.455000000000169
20
-3519.9446557865572
42
-0.41421356237308204
10
85.45499999999997
20
-3517.9446557865572
10
89.454999999999956
20
-3517.9446557865572
42
-0.41421356237308204
10
91.454999999999956
20
-3519.9446557865572
0
LWPOLYLINE
5
183
100
AcDbEntity
8
0
100
AcDbPolyline
90
8
70
1
43
0.0
10
91.455000000000481
20
-3488.4446557865576
42
-0.41421356237307944
10
89.455000000000126
20
-3490.4446557865585
10
85.45499999999997
20
-3490.4446557865585
42
-0.4142135623728635
10
83.454999999999956
20
-3488.4446557865576
10
83.455000000000169
20
-3484.4446557865576
42
-0.41421356237308204
10
85.45499999999997
20
-3482.4446557865576
10
89.454999999999956
20
-3482.4446557865576
42
-0.41421356237308204
10
91.454999999999956
20
-3484.4446557865576
0
LWPOLYLINE
5
184
100
AcDbEntity
8
0
100
AcDbPolyline
90
16
70
1
43
0.0
10
2.4337239712319914
20
-3596.9446557865576
10
2.4337239712319914
20
-3169.1747599378732
10
14.433723971231993
20
-3169.1747599378737
42
0.41421356237309503
10
17.433723971231991
20
-3166.1747599378737
10
17.433723971231991
20
-3154.1747599378732
10
284.54499999999985
20
-3154.1747599378732
10
284.54499999999979
20
-3166.1747599378732
42
0.41421356237309503
10
287.54499999999979
20
-3169.1747599378732
10
299.54499999999985
20
-3169.1747599378732
10
299.54499999999985
20
-3596.9446557865576
10
287.54499999999979
20
-3596.9446557865576
42
0.41421356237309503
10
284.54499999999985
20
-3599.9446557865576
10
284.54499999999985
20
-3611.9446557865576
10
17.433723971231991
20
-3611.9446557865576
10
17.433723971231984
20
-3599.9446557865576
42
0.41421356237309503
10
14.433723971231984
20
-3596.9446557865567
0
ENDSEC
0
SECTION
2
OBJECTS
0
DICTIONARY
5
C
100
AcDbDictionary
3
ACAD_GROUP
350
D
3
ACAD_MLINESTYLE
350
17
0
DICTIONARY
5
D
100
AcDbDictionary
0
DICTIONARY
5
1A
330
C
100
AcDbDictionary
0
DICTIONARY
5
17
100
AcDbDictionary
0
ENDSEC
0
EOF
